<!--?xml version="1.0" standalone="no"?-->
              <svg id="sw-js-blob-svg" viewBox="0 0 100 100" xmlns="http://www.w3.org/2000/svg" version="1.1">
                    <defs> 
                        <linearGradient id="sw-gradient" x1="0" x2="1" y1="1" y2="0">
                            <stop id="stop1" stop-color="rgba(63.115, 82.257, 230.942, 1)" offset="0%"></stop>
                            <stop id="stop2" stop-color="rgba(31, 146.28, 251, 1)" offset="100%"></stop>
                        </linearGradient>
                    </defs>
                <path fill="url(#sw-gradient)" d="M21,-37.2C26.4,-33.3,29.2,-25.9,32.7,-19.1C36.3,-12.4,40.4,-6.2,40.1,-0.2C39.8,5.8,35.1,11.7,30.8,17.2C26.6,22.6,22.7,27.7,17.7,31.3C12.6,34.9,6.3,37,0.4,36.4C-5.6,35.7,-11.2,32.4,-15.8,28.6C-20.5,24.8,-24.2,20.4,-28.3,15.6C-32.5,10.7,-37,5.4,-37.3,-0.2C-37.6,-5.7,-33.6,-11.4,-30.4,-17.8C-27.2,-24.3,-24.8,-31.5,-19.8,-35.7C-14.9,-39.8,-7.5,-40.8,0.2,-41.2C7.8,-41.5,15.6,-41.1,21,-37.2Z" width="80%" height="100%" transform="translate(50 50)" style="transition: all 0.3s ease 0s;" stroke-width="0" stroke="url(#sw-gradient)"></path>
              </svg>